<svg xmlns="http://www.w3.org/2000/svg" width="76.2mm" height="101.6mm" viewBox="0 0 76.2 101.6">
<title>Source-derived tactile preview; not production geometry</title>
<g fill="#111111" stroke="none">
  <rect x="21.047" y="21.942" width="1.421" height="1.395"/>
  <rect x="21.047" y="23.337" width="1.421" height="1.395"/>
  <rect x="21.047" y="24.732" width="1.421" height="1.395"/>
  <rect x="21.047" y="26.126" width="1.421" height="1.395"/>
  <rect x="22.468" y="19.153" width="1.421" height="1.395"/>
  <rect x="22.468" y="20.547" width="1.421" height="1.395"/>
  <rect x="22.468" y="21.942" width="1.421" height="1.395"/>
  <rect x="22.468" y="23.337" width="1.421" height="1.395"/>
  <rect x="22.468" y="24.732" width="1.421" height="1.395"/>
  <rect x="22.468" y="26.126" width="1.421" height="1.395"/>
  <rect x="22.468" y="27.521" width="1.421" height="1.395"/>
  <rect x="22.468" y="28.916" width="1.421" height="1.395"/>
  <rect x="23.889" y="16.363" width="1.421" height="1.395"/>
  <rect x="23.889" y="17.758" width="1.421" height="1.395"/>
  <rect x="23.889" y="19.153" width="1.421" height="1.395"/>
  <rect x="23.889" y="20.547" width="1.421" height="1.395"/>
  <rect x="23.889" y="21.942" width="1.421" height="1.395"/>
  <rect x="23.889" y="23.337" width="1.421" height="1.395"/>
  <rect x="23.889" y="24.732" width="1.421" height="1.395"/>
  <rect x="23.889" y="26.126" width="1.421" height="1.395"/>
  <rect x="23.889" y="27.521" width="1.421" height="1.395"/>
  <rect x="23.889" y="28.916" width="1.421" height="1.395"/>
  <rect x="23.889" y="30.311" width="1.421" height="1.395"/>
  <rect x="23.889" y="31.705" width="1.421" height="1.395"/>
  <rect x="25.311" y="16.363" width="1.421" height="1.395"/>
  <rect x="25.311" y="17.758" width="1.421" height="1.395"/>
  <rect x="25.311" y="19.153" width="1.421" height="1.395"/>
  <rect x="25.311" y="20.547" width="1.421" height="1.395"/>
  <rect x="25.311" y="21.942" width="1.421" height="1.395"/>
  <rect x="25.311" y="23.337" width="1.421" height="1.395"/>
  <rect x="25.311" y="24.732" width="1.421" height="1.395"/>
  <rect x="25.311" y="26.126" width="1.421" height="1.395"/>
  <rect x="25.311" y="27.521" width="1.421" height="1.395"/>
  <rect x="25.311" y="28.916" width="1.421" height="1.395"/>
  <rect x="25.311" y="30.311" width="1.421" height="1.395"/>
  <rect x="25.311" y="31.705" width="1.421" height="1.395"/>
  <rect x="25.311" y="33.100" width="1.421" height="1.395"/>
  <rect x="26.732" y="14.968" width="1.421" height="1.395"/>
  <rect x="26.732" y="16.363" width="1.421" height="1.395"/>
  <rect x="26.732" y="17.758" width="1.421" height="1.395"/>
  <rect x="26.732" y="19.153" width="1.421" height="1.395"/>
  <rect x="26.732" y="20.547" width="1.421" height="1.395"/>
  <rect x="26.732" y="21.942" width="1.421" height="1.395"/>
  <rect x="26.732" y="23.337" width="1.421" height="1.395"/>
  <rect x="26.732" y="24.732" width="1.421" height="1.395"/>
  <rect x="26.732" y="26.126" width="1.421" height="1.395"/>
  <rect x="26.732" y="27.521" width="1.421" height="1.395"/>
  <rect x="26.732" y="28.916" width="1.421" height="1.395"/>
  <rect x="26.732" y="30.311" width="1.421" height="1.395"/>
  <rect x="26.732" y="31.705" width="1.421" height="1.395"/>
  <rect x="26.732" y="33.100" width="1.421" height="1.395"/>
  <rect x="26.732" y="34.495" width="1.421" height="1.395"/>
  <rect x="28.153" y="14.968" width="1.421" height="1.395"/>
  <rect x="28.153" y="16.363" width="1.421" height="1.395"/>
  <rect x="28.153" y="17.758" width="1.421" height="1.395"/>
  <rect x="28.153" y="19.153" width="1.421" height="1.395"/>
  <rect x="28.153" y="20.547" width="1.421" height="1.395"/>
  <rect x="28.153" y="21.942" width="1.421" height="1.395"/>
  <rect x="28.153" y="23.337" width="1.421" height="1.395"/>
  <rect x="28.153" y="24.732" width="1.421" height="1.395"/>
  <rect x="28.153" y="26.126" width="1.421" height="1.395"/>
  <rect x="28.153" y="27.521" width="1.421" height="1.395"/>
  <rect x="28.153" y="28.916" width="1.421" height="1.395"/>
  <rect x="28.153" y="30.311" width="1.421" height="1.395"/>
  <rect x="28.153" y="31.705" width="1.421" height="1.395"/>
  <rect x="28.153" y="33.100" width="1.421" height="1.395"/>
  <rect x="28.153" y="34.495" width="1.421" height="1.395"/>
  <rect x="28.153" y="35.889" width="1.421" height="1.395"/>
  <rect x="29.574" y="14.968" width="1.421" height="1.395"/>
  <rect x="29.574" y="16.363" width="1.421" height="1.395"/>
  <rect x="29.574" y="17.758" width="1.421" height="1.395"/>
  <rect x="29.574" y="19.153" width="1.421" height="1.395"/>
  <rect x="29.574" y="20.547" width="1.421" height="1.395"/>
  <rect x="29.574" y="21.942" width="1.421" height="1.395"/>
  <rect x="29.574" y="23.337" width="1.421" height="1.395"/>
  <rect x="29.574" y="24.732" width="1.421" height="1.395"/>
  <rect x="29.574" y="26.126" width="1.421" height="1.395"/>
  <rect x="29.574" y="27.521" width="1.421" height="1.395"/>
  <rect x="29.574" y="28.916" width="1.421" height="1.395"/>
  <rect x="29.574" y="30.311" width="1.421" height="1.395"/>
  <rect x="29.574" y="31.705" width="1.421" height="1.395"/>
  <rect x="29.574" y="33.100" width="1.421" height="1.395"/>
  <rect x="29.574" y="34.495" width="1.421" height="1.395"/>
  <rect x="29.574" y="35.889" width="1.421" height="1.395"/>
  <rect x="29.574" y="37.284" width="1.421" height="1.395"/>
  <rect x="30.995" y="14.968" width="1.421" height="1.395"/>
  <rect x="30.995" y="16.363" width="1.421" height="1.395"/>
  <rect x="30.995" y="17.758" width="1.421" height="1.395"/>
  <rect x="30.995" y="19.153" width="1.421" height="1.395"/>
  <rect x="30.995" y="20.547" width="1.421" height="1.395"/>
  <rect x="30.995" y="21.942" width="1.421" height="1.395"/>
  <rect x="30.995" y="23.337" width="1.421" height="1.395"/>
  <rect x="30.995" y="24.732" width="1.421" height="1.395"/>
  <rect x="30.995" y="26.126" width="1.421" height="1.395"/>
  <rect x="30.995" y="27.521" width="1.421" height="1.395"/>
  <rect x="30.995" y="28.916" width="1.421" height="1.395"/>
  <rect x="30.995" y="30.311" width="1.421" height="1.395"/>
  <rect x="30.995" y="31.705" width="1.421" height="1.395"/>
  <rect x="30.995" y="33.100" width="1.421" height="1.395"/>
  <rect x="30.995" y="34.495" width="1.421" height="1.395"/>
  <rect x="30.995" y="35.889" width="1.421" height="1.395"/>
  <rect x="30.995" y="37.284" width="1.421" height="1.395"/>
  <rect x="30.995" y="38.679" width="1.421" height="1.395"/>
  <rect x="32.416" y="14.968" width="1.421" height="1.395"/>
  <rect x="32.416" y="16.363" width="1.421" height="1.395"/>
  <rect x="32.416" y="17.758" width="1.421" height="1.395"/>
  <rect x="32.416" y="19.153" width="1.421" height="1.395"/>
  <rect x="32.416" y="20.547" width="1.421" height="1.395"/>
  <rect x="32.416" y="21.942" width="1.421" height="1.395"/>
  <rect x="32.416" y="23.337" width="1.421" height="1.395"/>
  <rect x="32.416" y="24.732" width="1.421" height="1.395"/>
  <rect x="32.416" y="26.126" width="1.421" height="1.395"/>
  <rect x="32.416" y="27.521" width="1.421" height="1.395"/>
  <rect x="32.416" y="28.916" width="1.421" height="1.395"/>
  <rect x="32.416" y="30.311" width="1.421" height="1.395"/>
  <rect x="32.416" y="31.705" width="1.421" height="1.395"/>
  <rect x="32.416" y="33.100" width="1.421" height="1.395"/>
  <rect x="32.416" y="34.495" width="1.421" height="1.395"/>
  <rect x="32.416" y="35.889" width="1.421" height="1.395"/>
  <rect x="32.416" y="37.284" width="1.421" height="1.395"/>
  <rect x="32.416" y="38.679" width="1.421" height="1.395"/>
  <rect x="32.416" y="40.074" width="1.421" height="1.395"/>
  <rect x="33.837" y="16.363" width="1.421" height="1.395"/>
  <rect x="33.837" y="17.758" width="1.421" height="1.395"/>
  <rect x="33.837" y="19.153" width="1.421" height="1.395"/>
  <rect x="33.837" y="20.547" width="1.421" height="1.395"/>
  <rect x="33.837" y="21.942" width="1.421" height="1.395"/>
  <rect x="33.837" y="23.337" width="1.421" height="1.395"/>
  <rect x="33.837" y="24.732" width="1.421" height="1.395"/>
  <rect x="33.837" y="26.126" width="1.421" height="1.395"/>
  <rect x="33.837" y="27.521" width="1.421" height="1.395"/>
  <rect x="33.837" y="28.916" width="1.421" height="1.395"/>
  <rect x="33.837" y="30.311" width="1.421" height="1.395"/>
  <rect x="33.837" y="31.705" width="1.421" height="1.395"/>
  <rect x="33.837" y="33.100" width="1.421" height="1.395"/>
  <rect x="33.837" y="34.495" width="1.421" height="1.395"/>
  <rect x="33.837" y="35.889" width="1.421" height="1.395"/>
  <rect x="33.837" y="37.284" width="1.421" height="1.395"/>
  <rect x="33.837" y="38.679" width="1.421" height="1.395"/>
  <rect x="33.837" y="40.074" width="1.421" height="1.395"/>
  <rect x="33.837" y="41.468" width="1.421" height="1.395"/>
  <rect x="35.258" y="17.758" width="1.421" height="1.395"/>
  <rect x="35.258" y="19.153" width="1.421" height="1.395"/>
  <rect x="35.258" y="20.547" width="1.421" height="1.395"/>
  <rect x="35.258" y="21.942" width="1.421" height="1.395"/>
  <rect x="35.258" y="23.337" width="1.421" height="1.395"/>
  <rect x="35.258" y="24.732" width="1.421" height="1.395"/>
  <rect x="35.258" y="26.126" width="1.421" height="1.395"/>
  <rect x="35.258" y="27.521" width="1.421" height="1.395"/>
  <rect x="35.258" y="28.916" width="1.421" height="1.395"/>
  <rect x="35.258" y="30.311" width="1.421" height="1.395"/>
  <rect x="35.258" y="31.705" width="1.421" height="1.395"/>
  <rect x="35.258" y="33.100" width="1.421" height="1.395"/>
  <rect x="35.258" y="34.495" width="1.421" height="1.395"/>
  <rect x="35.258" y="35.889" width="1.421" height="1.395"/>
  <rect x="35.258" y="37.284" width="1.421" height="1.395"/>
  <rect x="35.258" y="38.679" width="1.421" height="1.395"/>
  <rect x="35.258" y="40.074" width="1.421" height="1.395"/>
  <rect x="35.258" y="41.468" width="1.421" height="1.395"/>
  <rect x="35.258" y="42.863" width="1.421" height="1.395"/>
  <rect x="36.679" y="19.153" width="1.421" height="1.395"/>
  <rect x="36.679" y="20.547" width="1.421" height="1.395"/>
  <rect x="36.679" y="21.942" width="1.421" height="1.395"/>
  <rect x="36.679" y="23.337" width="1.421" height="1.395"/>
  <rect x="36.679" y="24.732" width="1.421" height="1.395"/>
  <rect x="36.679" y="26.126" width="1.421" height="1.395"/>
  <rect x="36.679" y="27.521" width="1.421" height="1.395"/>
  <rect x="36.679" y="28.916" width="1.421" height="1.395"/>
  <rect x="36.679" y="30.311" width="1.421" height="1.395"/>
  <rect x="36.679" y="31.705" width="1.421" height="1.395"/>
  <rect x="36.679" y="33.100" width="1.421" height="1.395"/>
  <rect x="36.679" y="34.495" width="1.421" height="1.395"/>
  <rect x="36.679" y="35.889" width="1.421" height="1.395"/>
  <rect x="36.679" y="37.284" width="1.421" height="1.395"/>
  <rect x="36.679" y="38.679" width="1.421" height="1.395"/>
  <rect x="36.679" y="40.074" width="1.421" height="1.395"/>
  <rect x="36.679" y="41.468" width="1.421" height="1.395"/>
  <rect x="36.679" y="42.863" width="1.421" height="1.395"/>
  <rect x="36.679" y="44.258" width="1.421" height="1.395"/>
  <rect x="38.100" y="19.153" width="1.421" height="1.395"/>
  <rect x="38.100" y="20.547" width="1.421" height="1.395"/>
  <rect x="38.100" y="21.942" width="1.421" height="1.395"/>
  <rect x="38.100" y="23.337" width="1.421" height="1.395"/>
  <rect x="38.100" y="24.732" width="1.421" height="1.395"/>
  <rect x="38.100" y="26.126" width="1.421" height="1.395"/>
  <rect x="38.100" y="27.521" width="1.421" height="1.395"/>
  <rect x="38.100" y="28.916" width="1.421" height="1.395"/>
  <rect x="38.100" y="30.311" width="1.421" height="1.395"/>
  <rect x="38.100" y="31.705" width="1.421" height="1.395"/>
  <rect x="38.100" y="33.100" width="1.421" height="1.395"/>
  <rect x="38.100" y="34.495" width="1.421" height="1.395"/>
  <rect x="38.100" y="35.889" width="1.421" height="1.395"/>
  <rect x="38.100" y="37.284" width="1.421" height="1.395"/>
  <rect x="38.100" y="38.679" width="1.421" height="1.395"/>
  <rect x="38.100" y="40.074" width="1.421" height="1.395"/>
  <rect x="38.100" y="41.468" width="1.421" height="1.395"/>
  <rect x="38.100" y="42.863" width="1.421" height="1.395"/>
  <rect x="38.100" y="44.258" width="1.421" height="1.395"/>
  <rect x="39.521" y="17.758" width="1.421" height="1.395"/>
  <rect x="39.521" y="19.153" width="1.421" height="1.395"/>
  <rect x="39.521" y="20.547" width="1.421" height="1.395"/>
  <rect x="39.521" y="21.942" width="1.421" height="1.395"/>
  <rect x="39.521" y="23.337" width="1.421" height="1.395"/>
  <rect x="39.521" y="24.732" width="1.421" height="1.395"/>
  <rect x="39.521" y="26.126" width="1.421" height="1.395"/>
  <rect x="39.521" y="27.521" width="1.421" height="1.395"/>
  <rect x="39.521" y="28.916" width="1.421" height="1.395"/>
  <rect x="39.521" y="30.311" width="1.421" height="1.395"/>
  <rect x="39.521" y="31.705" width="1.421" height="1.395"/>
  <rect x="39.521" y="33.100" width="1.421" height="1.395"/>
  <rect x="39.521" y="34.495" width="1.421" height="1.395"/>
  <rect x="39.521" y="35.889" width="1.421" height="1.395"/>
  <rect x="39.521" y="37.284" width="1.421" height="1.395"/>
  <rect x="39.521" y="38.679" width="1.421" height="1.395"/>
  <rect x="39.521" y="40.074" width="1.421" height="1.395"/>
  <rect x="39.521" y="41.468" width="1.421" height="1.395"/>
  <rect x="39.521" y="42.863" width="1.421" height="1.395"/>
  <rect x="40.942" y="16.363" width="1.421" height="1.395"/>
  <rect x="40.942" y="17.758" width="1.421" height="1.395"/>
  <rect x="40.942" y="19.153" width="1.421" height="1.395"/>
  <rect x="40.942" y="20.547" width="1.421" height="1.395"/>
  <rect x="40.942" y="21.942" width="1.421" height="1.395"/>
  <rect x="40.942" y="23.337" width="1.421" height="1.395"/>
  <rect x="40.942" y="24.732" width="1.421" height="1.395"/>
  <rect x="40.942" y="26.126" width="1.421" height="1.395"/>
  <rect x="40.942" y="27.521" width="1.421" height="1.395"/>
  <rect x="40.942" y="28.916" width="1.421" height="1.395"/>
  <rect x="40.942" y="30.311" width="1.421" height="1.395"/>
  <rect x="40.942" y="31.705" width="1.421" height="1.395"/>
  <rect x="40.942" y="33.100" width="1.421" height="1.395"/>
  <rect x="40.942" y="34.495" width="1.421" height="1.395"/>
  <rect x="40.942" y="35.889" width="1.421" height="1.395"/>
  <rect x="40.942" y="37.284" width="1.421" height="1.395"/>
  <rect x="40.942" y="38.679" width="1.421" height="1.395"/>
  <rect x="40.942" y="40.074" width="1.421" height="1.395"/>
  <rect x="40.942" y="41.468" width="1.421" height="1.395"/>
  <rect x="42.363" y="14.968" width="1.421" height="1.395"/>
  <rect x="42.363" y="16.363" width="1.421" height="1.395"/>
  <rect x="42.363" y="17.758" width="1.421" height="1.395"/>
  <rect x="42.363" y="19.153" width="1.421" height="1.395"/>
  <rect x="42.363" y="20.547" width="1.421" height="1.395"/>
  <rect x="42.363" y="21.942" width="1.421" height="1.395"/>
  <rect x="42.363" y="23.337" width="1.421" height="1.395"/>
  <rect x="42.363" y="24.732" width="1.421" height="1.395"/>
  <rect x="42.363" y="26.126" width="1.421" height="1.395"/>
  <rect x="42.363" y="27.521" width="1.421" height="1.395"/>
  <rect x="42.363" y="28.916" width="1.421" height="1.395"/>
  <rect x="42.363" y="30.311" width="1.421" height="1.395"/>
  <rect x="42.363" y="31.705" width="1.421" height="1.395"/>
  <rect x="42.363" y="33.100" width="1.421" height="1.395"/>
  <rect x="42.363" y="34.495" width="1.421" height="1.395"/>
  <rect x="42.363" y="35.889" width="1.421" height="1.395"/>
  <rect x="42.363" y="37.284" width="1.421" height="1.395"/>
  <rect x="42.363" y="38.679" width="1.421" height="1.395"/>
  <rect x="42.363" y="40.074" width="1.421" height="1.395"/>
  <rect x="43.784" y="14.968" width="1.421" height="1.395"/>
  <rect x="43.784" y="16.363" width="1.421" height="1.395"/>
  <rect x="43.784" y="17.758" width="1.421" height="1.395"/>
  <rect x="43.784" y="19.153" width="1.421" height="1.395"/>
  <rect x="43.784" y="20.547" width="1.421" height="1.395"/>
  <rect x="43.784" y="21.942" width="1.421" height="1.395"/>
  <rect x="43.784" y="23.337" width="1.421" height="1.395"/>
  <rect x="43.784" y="24.732" width="1.421" height="1.395"/>
  <rect x="43.784" y="26.126" width="1.421" height="1.395"/>
  <rect x="43.784" y="27.521" width="1.421" height="1.395"/>
  <rect x="43.784" y="28.916" width="1.421" height="1.395"/>
  <rect x="43.784" y="30.311" width="1.421" height="1.395"/>
  <rect x="43.784" y="31.705" width="1.421" height="1.395"/>
  <rect x="43.784" y="33.100" width="1.421" height="1.395"/>
  <rect x="43.784" y="34.495" width="1.421" height="1.395"/>
  <rect x="43.784" y="35.889" width="1.421" height="1.395"/>
  <rect x="43.784" y="37.284" width="1.421" height="1.395"/>
  <rect x="43.784" y="38.679" width="1.421" height="1.395"/>
  <rect x="45.205" y="14.968" width="1.421" height="1.395"/>
  <rect x="45.205" y="16.363" width="1.421" height="1.395"/>
  <rect x="45.205" y="17.758" width="1.421" height="1.395"/>
  <rect x="45.205" y="19.153" width="1.421" height="1.395"/>
  <rect x="45.205" y="20.547" width="1.421" height="1.395"/>
  <rect x="45.205" y="21.942" width="1.421" height="1.395"/>
  <rect x="45.205" y="23.337" width="1.421" height="1.395"/>
  <rect x="45.205" y="24.732" width="1.421" height="1.395"/>
  <rect x="45.205" y="26.126" width="1.421" height="1.395"/>
  <rect x="45.205" y="27.521" width="1.421" height="1.395"/>
  <rect x="45.205" y="28.916" width="1.421" height="1.395"/>
  <rect x="45.205" y="30.311" width="1.421" height="1.395"/>
  <rect x="45.205" y="31.705" width="1.421" height="1.395"/>
  <rect x="45.205" y="33.100" width="1.421" height="1.395"/>
  <rect x="45.205" y="34.495" width="1.421" height="1.395"/>
  <rect x="45.205" y="35.889" width="1.421" height="1.395"/>
  <rect x="45.205" y="37.284" width="1.421" height="1.395"/>
  <rect x="46.626" y="14.968" width="1.421" height="1.395"/>
  <rect x="46.626" y="16.363" width="1.421" height="1.395"/>
  <rect x="46.626" y="17.758" width="1.421" height="1.395"/>
  <rect x="46.626" y="19.153" width="1.421" height="1.395"/>
  <rect x="46.626" y="20.547" width="1.421" height="1.395"/>
  <rect x="46.626" y="21.942" width="1.421" height="1.395"/>
  <rect x="46.626" y="23.337" width="1.421" height="1.395"/>
  <rect x="46.626" y="24.732" width="1.421" height="1.395"/>
  <rect x="46.626" y="26.126" width="1.421" height="1.395"/>
  <rect x="46.626" y="27.521" width="1.421" height="1.395"/>
  <rect x="46.626" y="28.916" width="1.421" height="1.395"/>
  <rect x="46.626" y="30.311" width="1.421" height="1.395"/>
  <rect x="46.626" y="31.705" width="1.421" height="1.395"/>
  <rect x="46.626" y="33.100" width="1.421" height="1.395"/>
  <rect x="46.626" y="34.495" width="1.421" height="1.395"/>
  <rect x="46.626" y="35.889" width="1.421" height="1.395"/>
  <rect x="48.047" y="14.968" width="1.421" height="1.395"/>
  <rect x="48.047" y="16.363" width="1.421" height="1.395"/>
  <rect x="48.047" y="17.758" width="1.421" height="1.395"/>
  <rect x="48.047" y="19.153" width="1.421" height="1.395"/>
  <rect x="48.047" y="20.547" width="1.421" height="1.395"/>
  <rect x="48.047" y="21.942" width="1.421" height="1.395"/>
  <rect x="48.047" y="23.337" width="1.421" height="1.395"/>
  <rect x="48.047" y="24.732" width="1.421" height="1.395"/>
  <rect x="48.047" y="26.126" width="1.421" height="1.395"/>
  <rect x="48.047" y="27.521" width="1.421" height="1.395"/>
  <rect x="48.047" y="28.916" width="1.421" height="1.395"/>
  <rect x="48.047" y="30.311" width="1.421" height="1.395"/>
  <rect x="48.047" y="31.705" width="1.421" height="1.395"/>
  <rect x="48.047" y="33.100" width="1.421" height="1.395"/>
  <rect x="48.047" y="34.495" width="1.421" height="1.395"/>
  <rect x="49.468" y="16.363" width="1.421" height="1.395"/>
  <rect x="49.468" y="17.758" width="1.421" height="1.395"/>
  <rect x="49.468" y="19.153" width="1.421" height="1.395"/>
  <rect x="49.468" y="20.547" width="1.421" height="1.395"/>
  <rect x="49.468" y="21.942" width="1.421" height="1.395"/>
  <rect x="49.468" y="23.337" width="1.421" height="1.395"/>
  <rect x="49.468" y="24.732" width="1.421" height="1.395"/>
  <rect x="49.468" y="26.126" width="1.421" height="1.395"/>
  <rect x="49.468" y="27.521" width="1.421" height="1.395"/>
  <rect x="49.468" y="28.916" width="1.421" height="1.395"/>
  <rect x="49.468" y="30.311" width="1.421" height="1.395"/>
  <rect x="49.468" y="31.705" width="1.421" height="1.395"/>
  <rect x="49.468" y="33.100" width="1.421" height="1.395"/>
  <rect x="50.889" y="16.363" width="1.421" height="1.395"/>
  <rect x="50.889" y="17.758" width="1.421" height="1.395"/>
  <rect x="50.889" y="19.153" width="1.421" height="1.395"/>
  <rect x="50.889" y="20.547" width="1.421" height="1.395"/>
  <rect x="50.889" y="21.942" width="1.421" height="1.395"/>
  <rect x="50.889" y="23.337" width="1.421" height="1.395"/>
  <rect x="50.889" y="24.732" width="1.421" height="1.395"/>
  <rect x="50.889" y="26.126" width="1.421" height="1.395"/>
  <rect x="50.889" y="27.521" width="1.421" height="1.395"/>
  <rect x="50.889" y="28.916" width="1.421" height="1.395"/>
  <rect x="50.889" y="30.311" width="1.421" height="1.395"/>
  <rect x="50.889" y="31.705" width="1.421" height="1.395"/>
  <rect x="52.311" y="19.153" width="1.421" height="1.395"/>
  <rect x="52.311" y="20.547" width="1.421" height="1.395"/>
  <rect x="52.311" y="21.942" width="1.421" height="1.395"/>
  <rect x="52.311" y="23.337" width="1.421" height="1.395"/>
  <rect x="52.311" y="24.732" width="1.421" height="1.395"/>
  <rect x="52.311" y="26.126" width="1.421" height="1.395"/>
  <rect x="52.311" y="27.521" width="1.421" height="1.395"/>
  <rect x="52.311" y="28.916" width="1.421" height="1.395"/>
  <rect x="53.732" y="21.942" width="1.421" height="1.395"/>
  <rect x="53.732" y="23.337" width="1.421" height="1.395"/>
  <rect x="53.732" y="24.732" width="1.421" height="1.395"/>
  <rect x="53.732" y="26.126" width="1.421" height="1.395"/>
</g></svg>
